<?xml version="1.0" standalone="no"?>
<!DOCTYPE svg PUBLIC "-//W3C//DTD SVG 20010904//EN"
 "http://www.w3.org/TR/2001/REC-SVG-20010904/DTD/svg10.dtd">
<svg version="1.0" xmlns="http://www.w3.org/2000/svg"
 width="110.000000pt" height="110.000000pt" viewBox="0 0 110.000000 110.000000"
 preserveAspectRatio="xMidYMid meet">
<metadata>
Created by potrace 1.14, written by Peter Selinger 2001-2017
</metadata>
<g transform="translate(0.000000,110.000000) scale(0.100000,-0.100000)"
fill="#000000" stroke="none">
<path d="M477 1010 c-96 -25 -174 -91 -217 -185 -23 -50 -28 -72 -26 -135 3
-130 69 -233 186 -289 79 -37 191 -37 270 0 70 34 122 86 157 157 39 80 40
192 2 272 -52 109 -151 177 -271 185 -34 2 -80 0 -101 -5z"/>
<path d="M30 242 c-18 -14 -23 -29 -23 -65 0 -58 20 -82 71 -90 20 -3 44 -8
54 -12 13 -5 16 0 17 32 4 110 3 117 -19 135 -29 23 -72 23 -100 0z m78 -63
c4 -45 -18 -68 -42 -44 -29 30 -17 88 18 83 16 -2 22 -11 24 -39z"/>
<path d="M187 253 c-3 -7 -2 -81 2 -120 4 -43 86 -58 121 -23 16 16 20 33 20
86 0 62 -1 65 -22 62 -20 -3 -23 -9 -24 -61 0 -38 -6 -62 -15 -67 -25 -16 -39
10 -39 71 0 52 -2 59 -19 59 -11 0 -22 -3 -24 -7z"/>
<path d="M369 228 c-1 -38 -1 -119 0 -130 1 -5 10 -8 20 -8 23 0 28 25 23 113
-3 48 -7 57 -23 57 -15 0 -19 -8 -20 -32z"/>
<path d="M450 250 c0 -5 0 -13 0 -17 -1 -5 15 -10 35 -13 l35 -5 -39 -45 c-57
-67 -52 -80 30 -80 37 0 70 4 73 8 8 13 -11 35 -25 30 -8 -3 -22 -2 -31 1 -15
5 -13 12 17 50 19 24 35 52 35 62 0 17 -8 19 -65 19 -37 0 -65 -4 -65 -10z"/>
<path d="M656 252 c-8 -13 -56 -144 -56 -153 0 -15 40 -10 46 6 8 20 63 20 70
0 4 -8 17 -15 29 -15 l24 0 -26 73 c-15 39 -31 78 -36 85 -11 13 -43 16 -51 4z
m43 -89 c1 -6 -6 -10 -14 -9 -17 2 -19 11 -10 41 l6 20 9 -20 c5 -11 9 -25 9
-32z"/>
<path d="M790 175 c0 -85 0 -85 26 -85 22 0 25 4 22 27 -3 25 1 28 36 34 41 7
56 21 56 56 0 31 -36 51 -92 52 l-48 0 0 -84z m88 26 c-5 -24 -35 -25 -41 -2
-3 11 0 22 7 24 19 7 37 -5 34 -22z"/>
<path d="M959 253 c-4 -29 -5 -140 -1 -151 6 -17 42 -15 43 3 1 8 2 20 3 27 0
7 17 15 36 19 53 11 73 57 40 92 -11 12 -120 21 -121 10z m91 -43 c0 -13 -29
-32 -40 -25 -5 3 -10 14 -10 24 0 14 6 17 25 13 14 -2 25 -8 25 -12z"/>
</g>
</svg>
